<svg width="512" height="512" viewBox="0 0 512 512" fill="none" xmlns="http://www.w3.org/2000/svg">
<rect width="512" height="512" fill="white"/>
<rect width="512" height="512" fill="white"/>
<path fill-rule="evenodd" clip-rule="evenodd" d="M391.083 131.81C391.083 123.732 394.292 115.985 400.004 110.273C405.716 104.561 413.464 101.352 421.542 101.352C429.62 101.352 437.367 104.561 443.079 110.273C448.791 115.985 452 123.732 452 131.81V337.942L421.542 383.629L391.083 337.942V131.81ZM421.542 121.657C418.849 121.657 416.267 122.727 414.362 124.631C412.458 126.535 411.389 129.117 411.389 131.81V331.789L421.542 347.019L431.694 331.789V131.81C431.694 129.117 430.625 126.535 428.721 124.631C426.817 122.727 424.234 121.657 421.542 121.657Z" fill="#3F61D7"/>
<path fill-rule="evenodd" clip-rule="evenodd" d="M441.847 172.421H401.236V152.115H441.847V172.421ZM127.111 50.5876C121.726 50.5876 116.561 52.727 112.753 56.535C108.945 60.343 106.805 65.5078 106.805 70.8932V355.171C106.805 360.557 108.945 365.721 112.753 369.529C116.561 373.337 121.726 375.477 127.111 375.477H330.167C335.552 375.477 340.717 373.337 344.525 369.529C348.333 365.721 350.472 360.557 350.472 355.171V70.8932C350.472 65.5078 348.333 60.343 344.525 56.535C340.717 52.727 335.552 50.5876 330.167 50.5876H127.111ZM86.4999 70.8932C86.4999 60.1224 90.7785 49.7928 98.3946 42.1768C106.011 34.5607 116.34 30.282 127.111 30.282H330.167C340.938 30.282 351.267 34.5607 358.883 42.1768C366.499 49.7928 370.778 60.1224 370.778 70.8932V355.171C370.778 365.942 366.499 376.272 358.883 383.888C351.267 391.504 340.938 395.782 330.167 395.782H127.111C116.34 395.782 106.011 391.504 98.3946 383.888C90.7785 376.272 86.4999 365.942 86.4999 355.171V70.8932Z" fill="#3F61D7"/>
<path fill-rule="evenodd" clip-rule="evenodd" d="M228.639 121.657C228.639 118.964 229.709 116.382 231.613 114.478C233.517 112.574 236.099 111.504 238.792 111.504H320.014C322.707 111.504 325.289 112.574 327.193 114.478C329.097 116.382 330.167 118.964 330.167 121.657C330.167 124.35 329.097 126.932 327.193 128.836C325.289 130.74 322.707 131.81 320.014 131.81H238.792C236.099 131.81 233.517 130.74 231.613 128.836C229.709 126.932 228.639 124.35 228.639 121.657ZM228.639 162.268C228.639 159.575 229.709 156.993 231.613 155.089C233.517 153.185 236.099 152.115 238.792 152.115H320.014C322.707 152.115 325.289 153.185 327.193 155.089C329.097 156.993 330.167 159.575 330.167 162.268C330.167 164.961 329.097 167.543 327.193 169.447C325.289 171.351 322.707 172.421 320.014 172.421H238.792C236.099 172.421 233.517 171.351 231.613 169.447C229.709 167.543 228.639 164.961 228.639 162.268ZM228.639 253.643C228.639 250.951 229.709 248.368 231.613 246.464C233.517 244.56 236.099 243.49 238.792 243.49H320.014C322.707 243.49 325.289 244.56 327.193 246.464C329.097 248.368 330.167 250.951 330.167 253.643C330.167 256.336 329.097 258.918 327.193 260.822C325.289 262.726 322.707 263.796 320.014 263.796H238.792C236.099 263.796 233.517 262.726 231.613 260.822C229.709 258.918 228.639 256.336 228.639 253.643ZM228.639 294.254C228.639 291.562 229.709 288.979 231.613 287.075C233.517 285.171 236.099 284.102 238.792 284.102H320.014C322.707 284.102 325.289 285.171 327.193 287.075C329.097 288.979 330.167 291.562 330.167 294.254C330.167 296.947 329.097 299.529 327.193 301.433C325.289 303.337 322.707 304.407 320.014 304.407H238.792C236.099 304.407 233.517 303.337 231.613 301.433C229.709 299.529 228.639 296.947 228.639 294.254ZM147.417 253.643V284.102H177.875V253.643H147.417ZM137.264 233.338H188.028C190.721 233.338 193.303 234.407 195.207 236.311C197.111 238.215 198.181 240.798 198.181 243.49V294.254C198.181 296.947 197.111 299.529 195.207 301.433C193.303 303.337 190.721 304.407 188.028 304.407H137.264C134.571 304.407 131.989 303.337 130.085 301.433C128.181 299.529 127.111 296.947 127.111 294.254V243.49C127.111 240.798 128.181 238.215 130.085 236.311C131.989 234.407 134.571 233.338 137.264 233.338V233.338ZM205.359 114.479C207.262 116.383 208.331 118.965 208.331 121.657C208.331 124.349 207.262 126.931 205.359 128.835L157.57 176.624L130.086 149.141C129.116 148.204 128.343 147.084 127.811 145.845C127.279 144.606 126.999 143.274 126.987 141.926C126.975 140.578 127.232 139.241 127.743 137.993C128.253 136.746 129.007 135.612 129.96 134.659C130.914 133.705 132.047 132.952 133.295 132.441C134.543 131.931 135.88 131.674 137.228 131.685C138.576 131.697 139.908 131.977 141.147 132.509C142.385 133.041 143.506 133.815 144.442 134.785L157.57 147.912L191.003 114.479C192.907 112.576 195.489 111.506 198.181 111.506C200.873 111.506 203.455 112.576 205.359 114.479V114.479Z" fill="#3F61D7"/>
<path d="M71.632 482V437.2H91.792C94.6507 437.2 97.232 437.819 99.536 439.056C101.883 440.293 103.717 442 105.04 444.176C106.363 446.309 107.024 448.741 107.024 451.472C107.024 454.288 106.363 456.827 105.04 459.088C103.717 461.307 101.904 463.056 99.6 464.336C97.296 465.616 94.6933 466.256 91.792 466.256H82V482H71.632ZM96.464 482L85.072 461.776L96.208 460.176L108.88 482H96.464ZM82 457.936H90.832C91.9413 457.936 92.9013 457.701 93.712 457.232C94.5653 456.72 95.2053 456.016 95.632 455.12C96.1013 454.224 96.336 453.2 96.336 452.048C96.336 450.896 96.08 449.893 95.568 449.04C95.056 448.144 94.3093 447.461 93.328 446.992C92.3893 446.523 91.2373 446.288 89.872 446.288H82V457.936ZM130.424 482.64C126.669 482.64 123.405 481.893 120.632 480.4C117.858 478.864 115.704 476.795 114.168 474.192C112.632 471.547 111.864 468.539 111.864 465.168C111.864 462.565 112.29 460.176 113.144 458C113.997 455.824 115.192 453.947 116.728 452.368C118.264 450.747 120.077 449.509 122.168 448.656C124.301 447.76 126.626 447.312 129.144 447.312C131.533 447.312 133.709 447.739 135.672 448.592C137.677 449.445 139.405 450.64 140.856 452.176C142.306 453.712 143.416 455.525 144.184 457.616C144.952 459.707 145.293 461.989 145.208 464.464L145.144 467.216H118.072L116.6 461.456H136.824L135.736 462.672V461.392C135.65 460.325 135.309 459.387 134.712 458.576C134.157 457.723 133.41 457.061 132.472 456.592C131.533 456.123 130.466 455.888 129.272 455.888C127.608 455.888 126.178 456.229 124.984 456.912C123.832 457.552 122.957 458.512 122.36 459.792C121.762 461.029 121.464 462.565 121.464 464.4C121.464 466.277 121.848 467.92 122.616 469.328C123.426 470.693 124.578 471.76 126.072 472.528C127.608 473.296 129.421 473.68 131.512 473.68C132.962 473.68 134.242 473.467 135.352 473.04C136.504 472.613 137.741 471.888 139.064 470.864L143.864 477.648C142.541 478.8 141.133 479.739 139.64 480.464C138.146 481.189 136.61 481.723 135.032 482.064C133.496 482.448 131.96 482.64 130.424 482.64ZM151.732 496.08V448.016H161.46L161.844 455.632L159.924 455.056C160.222 453.648 160.948 452.368 162.1 451.216C163.252 450.064 164.702 449.147 166.452 448.464C168.244 447.739 170.121 447.376 172.084 447.376C174.985 447.376 177.566 448.144 179.828 449.68C182.089 451.173 183.86 453.243 185.14 455.888C186.462 458.491 187.124 461.52 187.124 464.976C187.124 468.389 186.462 471.419 185.14 474.064C183.86 476.709 182.068 478.8 179.764 480.336C177.502 481.829 174.9 482.576 171.956 482.576C170.036 482.576 168.201 482.213 166.452 481.488C164.702 480.763 163.23 479.781 162.036 478.544C160.841 477.307 160.052 475.963 159.668 474.512L162.036 473.616V496.08H151.732ZM169.46 473.936C170.996 473.936 172.34 473.573 173.492 472.848C174.644 472.08 175.54 471.035 176.18 469.712C176.82 468.389 177.14 466.811 177.14 464.976C177.14 463.184 176.82 461.627 176.18 460.304C175.54 458.939 174.644 457.893 173.492 457.168C172.382 456.4 171.038 456.016 169.46 456.016C167.881 456.016 166.516 456.379 165.364 457.104C164.212 457.829 163.316 458.875 162.676 460.24C162.036 461.605 161.716 463.184 161.716 464.976C161.716 466.811 162.036 468.389 162.676 469.712C163.316 471.035 164.212 472.08 165.364 472.848C166.516 473.573 167.881 473.936 169.46 473.936ZM209.919 482.64C206.378 482.64 203.22 481.872 200.447 480.336C197.716 478.8 195.54 476.709 193.919 474.064C192.34 471.419 191.551 468.389 191.551 464.976C191.551 461.563 192.34 458.533 193.919 455.888C195.54 453.243 197.716 451.152 200.447 449.616C203.22 448.08 206.378 447.312 209.919 447.312C213.46 447.312 216.596 448.08 219.327 449.616C222.1 451.152 224.276 453.243 225.855 455.888C227.434 458.533 228.223 461.563 228.223 464.976C228.223 468.389 227.434 471.419 225.855 474.064C224.276 476.709 222.1 478.8 219.327 480.336C216.596 481.872 213.46 482.64 209.919 482.64ZM209.919 473.808C211.455 473.808 212.82 473.424 214.015 472.656C215.21 471.888 216.148 470.843 216.831 469.52C217.514 468.197 217.834 466.683 217.791 464.976C217.834 463.269 217.514 461.755 216.831 460.432C216.148 459.067 215.21 458 214.015 457.232C212.82 456.464 211.455 456.08 209.919 456.08C208.383 456.08 206.996 456.464 205.759 457.232C204.564 458 203.626 459.067 202.943 460.432C202.26 461.755 201.94 463.269 201.983 464.976C201.94 466.683 202.26 468.197 202.943 469.52C203.626 470.843 204.564 471.888 205.759 472.656C206.996 473.424 208.383 473.808 209.919 473.808Z" fill="black"/>
<path d="M236.007 482V437.2H255.335C258.151 437.2 260.647 437.84 262.823 439.12C265.042 440.4 266.791 442.149 268.071 444.368C269.394 446.587 270.055 449.083 270.055 451.856C270.055 454.757 269.394 457.36 268.071 459.664C266.791 461.925 265.042 463.717 262.823 465.04C260.647 466.363 258.151 467.024 255.335 467.024H246.887V482H236.007ZM246.695 457.488H253.799C254.738 457.488 255.591 457.253 256.359 456.784C257.127 456.315 257.746 455.675 258.215 454.864C258.684 454.053 258.919 453.115 258.919 452.048C258.919 450.939 258.684 450 258.215 449.232C257.746 448.464 257.127 447.867 256.359 447.44C255.591 447.013 254.738 446.8 253.799 446.8H246.695V457.488ZM277.294 482V448.016H287.022L287.47 459.088L285.55 456.976C286.062 455.141 286.894 453.499 288.046 452.048C289.241 450.597 290.627 449.445 292.206 448.592C293.785 447.739 295.47 447.312 297.262 447.312C298.03 447.312 298.734 447.376 299.374 447.504C300.057 447.632 300.675 447.781 301.23 447.952L298.414 459.28C297.945 458.981 297.305 458.747 296.494 458.576C295.726 458.363 294.915 458.256 294.062 458.256C293.123 458.256 292.249 458.427 291.438 458.768C290.627 459.067 289.945 459.515 289.39 460.112C288.835 460.709 288.387 461.413 288.046 462.224C287.747 463.035 287.598 463.952 287.598 464.976V482H277.294ZM320.982 482.64C317.44 482.64 314.283 481.872 311.51 480.336C308.779 478.8 306.603 476.709 304.982 474.064C303.403 471.419 302.614 468.389 302.614 464.976C302.614 461.563 303.403 458.533 304.982 455.888C306.603 453.243 308.779 451.152 311.51 449.616C314.283 448.08 317.44 447.312 320.982 447.312C324.523 447.312 327.659 448.08 330.39 449.616C333.163 451.152 335.339 453.243 336.918 455.888C338.496 458.533 339.286 461.563 339.286 464.976C339.286 468.389 338.496 471.419 336.918 474.064C335.339 476.709 333.163 478.8 330.39 480.336C327.659 481.872 324.523 482.64 320.982 482.64ZM320.982 473.808C322.518 473.808 323.883 473.424 325.078 472.656C326.272 471.888 327.211 470.843 327.894 469.52C328.576 468.197 328.896 466.683 328.854 464.976C328.896 463.269 328.576 461.755 327.894 460.432C327.211 459.067 326.272 458 325.078 457.232C323.883 456.464 322.518 456.08 320.982 456.08C319.446 456.08 318.059 456.464 316.822 457.232C315.627 458 314.688 459.067 314.006 460.432C313.323 461.755 313.003 463.269 313.046 464.976C313.003 466.683 313.323 468.197 314.006 469.52C314.688 470.843 315.627 471.888 316.822 472.656C318.059 473.424 319.446 473.808 320.982 473.808ZM355.476 482L341.268 448.016H352.596L361.044 473.424L358.548 473.68L367.252 448.016H378.452L363.54 482H355.476ZM395.401 482.576C392.542 482.576 389.982 481.829 387.72 480.336C385.502 478.8 383.731 476.709 382.409 474.064C381.086 471.376 380.424 468.347 380.424 464.976C380.424 461.52 381.086 458.469 382.409 455.824C383.731 453.179 385.545 451.109 387.849 449.616C390.153 448.08 392.777 447.312 395.721 447.312C397.342 447.312 398.814 447.547 400.137 448.016C401.502 448.485 402.697 449.147 403.721 450C404.745 450.811 405.619 451.771 406.345 452.88C407.07 453.947 407.603 455.099 407.945 456.336L405.833 456.08V448.016H416.009V482H405.641V473.808L407.945 473.744C407.603 474.939 407.049 476.069 406.281 477.136C405.513 478.203 404.574 479.141 403.465 479.952C402.355 480.763 401.118 481.403 399.753 481.872C398.387 482.341 396.937 482.576 395.401 482.576ZM398.217 473.936C399.795 473.936 401.161 473.573 402.313 472.848C403.465 472.123 404.361 471.099 405.001 469.776C405.641 468.411 405.961 466.811 405.961 464.976C405.961 463.141 405.641 461.563 405.001 460.24C404.361 458.875 403.465 457.829 402.313 457.104C401.161 456.336 399.795 455.952 398.217 455.952C396.681 455.952 395.337 456.336 394.185 457.104C393.075 457.829 392.201 458.875 391.561 460.24C390.921 461.563 390.601 463.141 390.601 464.976C390.601 466.811 390.921 468.411 391.561 469.776C392.201 471.099 393.075 472.123 394.185 472.848C395.337 473.573 396.681 473.936 398.217 473.936ZM436.5 482.64C433.172 482.64 430.228 482.107 427.668 481.04C425.151 479.973 423.145 478.544 421.652 476.752L427.86 471.376C429.183 472.699 430.676 473.68 432.34 474.32C434.004 474.917 435.583 475.216 437.076 475.216C437.673 475.216 438.207 475.152 438.676 475.024C439.145 474.896 439.529 474.725 439.828 474.512C440.169 474.256 440.425 473.979 440.596 473.68C440.767 473.339 440.852 472.955 440.852 472.528C440.852 471.675 440.468 471.013 439.7 470.544C439.316 470.331 438.676 470.075 437.78 469.776C436.884 469.477 435.732 469.136 434.324 468.752C432.319 468.24 430.569 467.643 429.076 466.96C427.625 466.235 426.431 465.403 425.492 464.464C424.639 463.568 423.977 462.587 423.508 461.52C423.039 460.411 422.804 459.173 422.804 457.808C422.804 456.229 423.167 454.8 423.892 453.52C424.66 452.24 425.663 451.131 426.9 450.192C428.18 449.253 429.631 448.549 431.252 448.08C432.916 447.568 434.623 447.312 436.372 447.312C438.249 447.312 440.041 447.525 441.748 447.952C443.455 448.379 445.033 448.976 446.484 449.744C447.977 450.512 449.3 451.429 450.452 452.496L445.076 458.512C444.308 457.787 443.433 457.147 442.452 456.592C441.513 455.995 440.532 455.525 439.508 455.184C438.484 454.843 437.545 454.672 436.692 454.672C436.052 454.672 435.476 454.736 434.964 454.864C434.495 454.949 434.089 455.12 433.748 455.376C433.407 455.589 433.151 455.867 432.98 456.208C432.809 456.507 432.724 456.869 432.724 457.296C432.724 457.723 432.831 458.128 433.044 458.512C433.3 458.896 433.641 459.216 434.068 459.472C434.495 459.728 435.177 460.027 436.116 460.368C437.055 460.667 438.335 461.051 439.956 461.52C441.961 462.075 443.689 462.693 445.14 463.376C446.591 464.059 447.743 464.869 448.596 465.808C449.279 466.533 449.791 467.387 450.132 468.368C450.473 469.307 450.644 470.331 450.644 471.44C450.644 473.616 450.025 475.557 448.788 477.264C447.593 478.928 445.929 480.251 443.796 481.232C441.663 482.171 439.231 482.64 436.5 482.64Z" fill="#3F61D7"/>
</svg>
